# xmcd CD database file
#
# Track frame offsets:
#	150
#	4023
#	30466
#	46599
#	59242
#	86883
#	127122
#	139573
#	177415
#	191099
#
# Disc length: 3026 seconds
#
# Revision: 0
# Processed by: cddbd v1.5.2PL0 Copyright (c) Steve Scherf et al.
# Submitted via: CDex 1.51
#
DISCID=890bd00a
DTITLE=Frode Haltli - Passing Images
DYEAR=2006
DGENRE=Jazz
TTITLE0=Inter
TTITLE1=Jag haver ingen kärare
TTITLE2=The Letter
TTITLE3=Lude
TTITLE4=Lyrisk vals
TTITLE5=Passing Images
TTITLE6=Pre
TTITLE7=Pslm
TTITLE8=Vals
TTITLE9=Vandring
EXTD=YEAR: 2006
EXTT0=
EXTT1=
EXTT2=
EXTT3=
EXTT4=
EXTT5=
EXTT6=
EXTT7=
EXTT8=
EXTT9=
PLAYORDER=
